<?xml version="1.0" encoding="UTF-8" standalone="no"?>
<!DOCTYPE svg PUBLIC "-//W3C//DTD SVG 1.1//EN" "http://www.w3.org/Graphics/SVG/1.1/DTD/svg11.dtd">
<svg width="100%" height="100%" viewBox="0 0 24 24" version="1.1" xmlns="http://www.w3.org/2000/svg" xmlns:xlink="http://www.w3.org/1999/xlink" xml:space="preserve" xmlns:serif="http://www.serif.com/" style="fill-rule:evenodd;clip-rule:evenodd;stroke-linejoin:round;stroke-miterlimit:2;">
    <path d="M11,20.85C11,20.859 11,20.869 11,20.878C11,21.383 10.585,21.798 10.08,21.798C10.02,21.798 9.959,21.792 9.9,21.78C5.67,20.867 2.491,17.306 2.06,13C2,12.45 2.46,12 3.01,12L6.01,12C6.559,12 7.01,12.451 7.01,13C7.01,14.646 8.364,16 10.01,16C10.559,16 11.01,16.451 11.01,17L11.01,20.85L11,20.85ZM17,18.93C17,19.7 17.83,20.16 18.42,19.67C19.213,19.006 19.897,18.224 20.45,17.35C20.84,16.74 20.36,16 19.64,16L18,16C17.451,16 17,16.451 17,17L17,18.93ZM12,2C14.451,2 16.819,2.9 18.65,4.53C19.26,5.08 18.82,6 18,6L17.85,6C16.287,6 15,7.287 15,8.85C15,9.18 14.82,9.47 14.53,9.62L14.45,9.66C14.167,9.803 13.833,9.803 13.55,9.66L13.47,9.62C13.179,9.475 12.996,9.175 13,8.85C13,7.287 11.713,6 10.15,6L10,6C9.451,6 9,5.549 9,5L9,3.2C9,2.76 9.28,2.36 9.7,2.26C10.45,2.1 11.22,2 12,2Z" style="fill:rgb(142,188,187);fill-rule:nonzero;stroke:rgb(142,188,187);stroke-opacity:0;stroke-width:1px;"/>
    <path d="M3.42,10C2.79,10 2.32,9.42 2.52,8.82C3.12,7.02 4.22,5.46 5.64,4.29C6.2,3.82 7,4.26 7,5C7,6.646 8.354,8 10,8L10.15,8C10.62,8 11,8.38 11,8.85C11,9.94 11.61,10.92 12.58,11.41L12.66,11.45C13.503,11.871 14.497,11.871 15.34,11.45L15.42,11.41C16.389,10.928 17.003,9.933 17,8.85C17,8.38 17.38,8 17.85,8L20.51,8C20.91,8 21.28,8.23 21.41,8.6C21.941,10.071 22.12,11.647 21.93,13.2C21.86,13.665 21.451,14.01 20.98,14L18,14C16.354,14 15,15.354 15,17L15,20.8C15,21.24 14.72,21.64 14.3,21.74L14.1,21.78C14.041,21.792 13.98,21.798 13.92,21.798C13.415,21.798 13,21.383 13,20.878C13,20.869 13,20.859 13,20.85L13,17C13,15.354 11.646,14 10,14C9.451,14 9,13.549 9,13C9,11.354 7.646,10 6,10L3.42,10Z" style="fill:rgb(142,188,187);fill-rule:nonzero;stroke:rgb(142,188,187);stroke-opacity:0;stroke-width:1px;"/>
</svg>
