<?xml version="1.0" encoding="UTF-8" standalone="no"?>
<!DOCTYPE svg PUBLIC "-//W3C//DTD SVG 1.1//EN" "http://www.w3.org/Graphics/SVG/1.1/DTD/svg11.dtd">
<svg width="100%" height="100%" viewBox="0 0 261 261" version="1.1" xmlns="http://www.w3.org/2000/svg" xmlns:xlink="http://www.w3.org/1999/xlink" xml:space="preserve" xmlns:serif="http://www.serif.com/" style="fill-rule:evenodd;clip-rule:evenodd;">
    <g id="path827" transform="matrix(2.834646,0,0,2.834646,0,0)">
        <path d="M39.581,41.421L30.627,41.421L30.627,40.206C30.627,38.85 30.9,37.651 31.445,36.609C31.991,35.551 33.14,34.211 34.893,32.591L36.481,31.152C37.423,30.292 38.11,29.482 38.54,28.721C38.986,27.961 39.209,27.2 39.209,26.439C39.209,25.282 38.812,24.38 38.019,23.736C37.225,23.074 36.117,22.743 34.695,22.743C33.355,22.743 31.908,23.025 30.354,23.587C28.8,24.132 27.179,24.951 25.492,26.042L25.492,18.254C27.493,17.559 29.321,17.047 30.974,16.716C32.628,16.385 34.224,16.22 35.761,16.22C39.796,16.22 42.872,17.047 44.989,18.7C47.105,20.337 48.164,22.735 48.164,25.894C48.164,27.514 47.841,28.969 47.196,30.259C46.552,31.533 45.452,32.905 43.897,34.377L42.31,35.791C41.185,36.816 40.45,37.643 40.102,38.271C39.755,38.883 39.581,39.561 39.581,40.305L39.581,41.421ZM30.627,45.092L39.581,45.092L39.581,53.923L30.627,53.923L30.627,45.092Z" style="fill:rgb(216,222,233);fill-rule:nonzero;"/>
    </g>
    <g id="path834" transform="matrix(2.834646,0,0,2.834646,0,0)">
        <circle cx="35" cy="36.486" r="30" style="fill:none;stroke:rgb(216,222,233);stroke-width:10px;"/>
    </g>
    <g id="rect912" transform="matrix(1.960741,-2.047123,2.047123,1.960741,0,0)">
        <rect x="-12.021" y="80.49" width="18.846" height="39.963" style="fill:rgb(216,222,233);"/>
    </g>
</svg>
