<?xml version="1.0" encoding="UTF-8" standalone="no"?>
<!DOCTYPE svg PUBLIC "-//W3C//DTD SVG 1.1//EN" "http://www.w3.org/Graphics/SVG/1.1/DTD/svg11.dtd">
<svg width="100%" height="100%" viewBox="0 0 766 110" version="1.1" xmlns="http://www.w3.org/2000/svg" xmlns:xlink="http://www.w3.org/1999/xlink" xml:space="preserve" xmlns:serif="http://www.serif.com/" style="fill-rule:evenodd;clip-rule:evenodd;stroke-linecap:round;stroke-linejoin:round;">
    <g id="Layer-1" serif:id="Layer 1" transform="matrix(2.845357,0,0,2.845357,-3.938587,-21.290685)">
        <g id="text884" transform="matrix(1,0,0,1,-26.75673,-86.178571)">
            <path id="path886" d="M56.494,102.704C55.715,101.891 54.699,101.213 53.446,100.672C52.193,100.13 50.72,99.859 49.026,99.859C46.927,99.859 45.233,100.299 43.946,101.18C42.66,102.026 42.016,103.178 42.016,104.634C42.016,106.192 43.252,107.394 45.724,108.241L53.395,110.882C56.037,111.763 57.984,112.897 59.237,114.286C60.49,115.675 61.117,117.385 61.117,119.417C61.117,122.126 60.389,124.463 58.932,126.427C57.476,128.358 55.495,129.831 52.989,130.847C50.483,131.863 47.655,132.371 44.505,132.371C40.949,132.371 37.935,131.778 35.463,130.593C32.991,129.374 31.145,127.663 29.926,125.462C29.79,125.225 29.722,124.988 29.722,124.751C29.722,124.514 29.858,124.311 30.129,124.141L34.142,121.703C34.379,121.533 34.633,121.449 34.904,121.449C35.31,121.449 35.683,121.669 36.022,122.109C36.902,123.193 37.698,124.04 38.409,124.649C39.154,125.225 40.052,125.665 41.102,125.97C42.185,126.275 43.574,126.427 45.267,126.427C47.401,126.427 49.128,126.038 50.449,125.259C51.77,124.446 52.43,123.193 52.43,121.5C52.43,120.653 52.125,119.959 51.516,119.417C50.906,118.841 49.924,118.316 48.569,117.842L41.152,115.353C38.714,114.54 36.851,113.355 35.564,111.797C34.311,110.205 33.685,108.393 33.685,106.361C33.685,103.855 34.396,101.637 35.818,99.706C37.241,97.776 39.137,96.286 41.508,95.236C43.913,94.186 46.537,93.661 49.382,93.661C52.295,93.661 54.852,94.186 57.053,95.236C59.288,96.252 61.015,97.573 62.234,99.198C62.505,99.537 62.641,99.791 62.641,99.96C62.641,100.13 62.522,100.282 62.285,100.418L57.764,103.415C57.73,103.449 57.662,103.466 57.561,103.466C57.358,103.466 57.002,103.212 56.494,102.704Z" style="fill:rgb(134,192,209);fill-rule:nonzero;"/>
            <path id="path888" d="M77.004,132.371C74.599,132.371 72.466,131.88 70.603,130.898C68.74,129.915 67.301,128.544 66.285,126.783C65.269,124.988 64.761,122.922 64.761,120.585C64.761,117.808 65.421,115.183 66.742,112.711C68.097,110.205 69.943,108.207 72.279,106.717C74.65,105.193 77.292,104.431 80.204,104.431C83.76,104.431 86.588,105.481 88.688,107.58C90.788,109.68 91.837,112.576 91.837,116.267C91.837,117.249 91.77,118.198 91.634,119.112C91.566,119.383 91.448,119.586 91.279,119.722C91.143,119.823 90.872,119.874 90.466,119.874L73.346,119.874C72.804,119.874 72.533,120.602 72.533,122.058C72.533,123.65 73.041,124.886 74.057,125.767C75.107,126.613 76.462,127.037 78.121,127.037C79.408,127.037 80.611,126.766 81.728,126.224C82.846,125.682 83.946,124.835 85.03,123.684C85.2,123.515 85.369,123.43 85.538,123.43C85.64,123.43 85.86,123.498 86.199,123.633L89.551,125.208C89.958,125.343 90.161,125.564 90.161,125.868C90.161,126.038 90.076,126.258 89.907,126.529C87.943,128.73 85.978,130.254 84.014,131.101C82.084,131.947 79.747,132.371 77.004,132.371ZM83.455,115.81C84.268,115.81 84.675,115.15 84.675,113.829C84.675,112.542 84.285,111.458 83.506,110.578C82.727,109.663 81.644,109.206 80.255,109.206C78.562,109.206 77.055,109.849 75.734,111.136C74.447,112.389 73.702,113.947 73.499,115.81L83.455,115.81Z" style="fill:rgb(134,192,209);fill-rule:nonzero;"/>
            <path id="path890" d="M109.411,129.374C107.379,131.372 104.602,132.371 101.08,132.371C98.709,132.371 96.846,131.761 95.492,130.542C94.137,129.323 93.46,127.731 93.46,125.767C93.46,123.362 94.256,121.398 95.847,119.874C97.439,118.316 99.437,117.199 101.842,116.521C104.28,115.81 106.803,115.421 109.411,115.353L111.24,115.2C111.883,115.2 112.256,114.879 112.357,114.235L112.51,113.168C112.544,112.999 112.561,112.728 112.561,112.356C112.561,110.324 111.392,109.308 109.055,109.308C106.38,109.308 104.399,110.357 103.112,112.457C102.942,112.694 102.722,112.813 102.451,112.813C102.248,112.813 102.096,112.796 101.994,112.762L97.067,111.594C96.728,111.526 96.559,111.306 96.559,110.933C96.559,110.595 96.643,110.256 96.813,109.917C99.048,106.26 103.264,104.431 109.462,104.431C113.119,104.431 115.795,105.074 117.488,106.361C119.215,107.648 120.079,109.426 120.079,111.695C120.079,112 120.045,112.491 119.977,113.168L117.437,130.948C117.404,131.389 117.336,131.66 117.234,131.761C117.133,131.829 116.896,131.863 116.523,131.863L111.291,131.863C110.952,131.863 110.732,131.761 110.63,131.558C110.529,131.355 110.461,131.016 110.427,130.542L110.478,129.221C110.478,128.95 110.393,128.815 110.224,128.815C110.054,128.815 109.784,129.001 109.411,129.374ZM111.595,119.62L111.595,119.315C111.595,119.18 111.562,119.095 111.494,119.061C111.426,118.993 111.291,118.977 111.087,119.01L109.259,119.163C107.294,119.298 105.466,119.789 103.772,120.636C102.079,121.483 101.232,122.787 101.232,124.548C101.232,125.36 101.52,126.021 102.096,126.529C102.705,127.003 103.518,127.24 104.534,127.24C105.415,127.24 106.244,127.121 107.023,126.884C107.802,126.613 108.48,126.258 109.055,125.818C110.308,124.869 111.003,123.904 111.138,122.922L111.595,119.62Z" style="fill:rgb(134,192,209);fill-rule:nonzero;"/>
            <path id="path892" d="M123.864,131.863C123.457,131.863 123.152,131.744 122.949,131.507C122.78,131.27 122.729,130.965 122.797,130.593L126.302,105.65C126.336,105.345 126.387,105.159 126.454,105.091C126.556,104.99 126.742,104.939 127.013,104.939L133.058,104.939C133.668,104.939 133.905,105.294 133.77,106.006L133.414,108.292L133.414,108.495C133.414,108.732 133.482,108.85 133.617,108.85C133.719,108.85 133.871,108.749 134.074,108.546C135.26,107.293 136.581,106.293 138.037,105.548C139.493,104.803 140.814,104.431 141.999,104.431C142.71,104.431 143.235,104.482 143.574,104.583C143.913,104.685 144.065,104.888 144.031,105.193L143.218,110.882C143.185,111.255 143.117,111.492 143.015,111.594C142.947,111.695 142.812,111.729 142.609,111.695C141.457,111.526 140.306,111.441 139.154,111.441C138.274,111.441 137.343,111.678 136.36,112.152C135.378,112.593 134.532,113.185 133.82,113.93C133.143,114.642 132.754,115.353 132.652,116.064L130.569,130.898C130.501,131.338 130.383,131.609 130.214,131.71C130.078,131.812 129.756,131.863 129.248,131.863L123.864,131.863Z" style="fill:rgb(134,192,209);fill-rule:nonzero;"/>
            <path id="path894" d="M176.481,130.085C176.786,130.627 176.938,131.033 176.938,131.304C176.938,131.507 176.854,131.66 176.684,131.761C176.515,131.829 176.261,131.863 175.922,131.863L168.861,131.863C168.455,131.863 168.133,131.812 167.896,131.71C167.693,131.609 167.524,131.406 167.388,131.101L161.749,119.366C161.58,119.027 161.411,118.858 161.241,118.858C161.14,118.858 160.953,119.044 160.682,119.417L151.64,131.253C151.471,131.524 151.268,131.693 151.03,131.761C150.827,131.829 150.472,131.863 149.964,131.863L144.02,131.863C143.343,131.863 143.004,131.643 143.004,131.202C143.004,130.898 143.258,130.39 143.766,129.678L156.771,113.372C157.143,112.965 157.33,112.61 157.33,112.305C157.33,112.068 157.296,111.881 157.228,111.746L148.744,95.185C148.643,95.016 148.592,94.847 148.592,94.677C148.592,94.339 148.846,94.169 149.354,94.169L156.771,94.169C157.211,94.169 157.516,94.22 157.685,94.322C157.855,94.423 158.024,94.643 158.193,94.982L163.121,105.345C163.222,105.616 163.341,105.752 163.476,105.752C163.612,105.752 163.781,105.616 163.984,105.345L172.011,94.779C172.214,94.508 172.4,94.339 172.57,94.271C172.773,94.203 173.095,94.169 173.535,94.169L180.088,94.169C180.494,94.169 180.698,94.355 180.698,94.728C180.698,94.999 180.596,95.304 180.393,95.642L167.794,111.289C167.456,111.729 167.286,112.034 167.286,112.203C167.286,112.339 167.337,112.508 167.439,112.711L176.481,130.085Z" style="fill:rgb(134,192,209);fill-rule:nonzero;"/>
            <path id="path896" d="M218.113,94.169C218.35,94.169 218.502,94.237 218.57,94.372C218.638,94.474 218.655,94.66 218.621,94.931L213.49,131.304C213.456,131.541 213.371,131.693 213.236,131.761C213.134,131.829 212.948,131.863 212.677,131.863L207.495,131.863C207.055,131.863 206.666,131.592 206.327,131.05L193.221,108.342C193.119,108.173 193.017,108.088 192.916,108.088C192.713,108.088 192.594,108.275 192.56,108.647L189.411,131.05C189.343,131.389 189.241,131.609 189.106,131.71C189.004,131.812 188.767,131.863 188.395,131.863L182.807,131.863C182.265,131.863 182.028,131.49 182.095,130.745L187.175,94.931C187.243,94.593 187.311,94.389 187.379,94.322C187.48,94.22 187.7,94.169 188.039,94.169L194.186,94.169C194.525,94.169 194.779,94.254 194.948,94.423C195.151,94.559 195.337,94.796 195.507,95.134L207.495,116.318C207.665,116.589 207.834,116.724 208.003,116.724C208.274,116.724 208.427,116.521 208.461,116.115L211.407,94.83C211.441,94.559 211.509,94.389 211.61,94.322C211.746,94.22 211.966,94.169 212.271,94.169L218.113,94.169Z" style="fill:rgb(134,192,209);fill-rule:nonzero;"/>
            <path id="path898" d="M236.44,132.371C233.392,132.371 230.75,131.727 228.515,130.44C226.28,129.153 224.569,127.342 223.384,125.005C222.233,122.634 221.657,119.857 221.657,116.674C221.657,112.474 222.487,108.63 224.146,105.142C225.805,101.62 228.159,98.826 231.207,96.76C234.255,94.694 237.76,93.661 241.723,93.661C244.432,93.661 246.82,94.186 248.886,95.236C250.985,96.286 252.611,97.674 253.762,99.402C254.914,101.095 255.523,102.907 255.591,104.837C255.591,105.176 255.557,105.43 255.49,105.599C255.456,105.735 255.371,105.819 255.236,105.853L248.276,106.869L248.225,106.869C248.09,106.869 247.971,106.785 247.87,106.615C247.802,106.446 247.717,106.107 247.616,105.599C247.379,103.906 246.735,102.534 245.685,101.484C244.669,100.435 243.23,99.91 241.367,99.91C238.963,99.91 236.965,100.79 235.373,102.551C233.815,104.312 232.663,106.581 231.918,109.358C231.173,112.102 230.801,114.963 230.801,117.944C230.801,120.856 231.343,122.956 232.426,124.243C233.544,125.496 235.17,126.122 237.303,126.122C239.369,126.122 241.113,125.547 242.536,124.395C243.958,123.244 245.008,121.838 245.685,120.179L245.99,118.756C246.092,118.587 246.142,118.469 246.142,118.401C246.142,118.198 245.939,118.096 245.533,118.096L239.284,118.096C239.081,118.096 238.946,118.062 238.878,117.994C238.81,117.893 238.793,117.707 238.827,117.436L239.284,113.27C239.318,112.897 239.488,112.711 239.792,112.711L254.321,112.762C254.728,112.762 254.982,112.83 255.083,112.965C255.219,113.067 255.253,113.287 255.185,113.626L252.696,131.202C252.662,131.643 252.391,131.863 251.883,131.863L250.359,131.863C250.054,131.863 249.817,131.812 249.648,131.71C249.512,131.609 249.394,131.406 249.292,131.101L248.428,127.392C248.395,127.223 248.276,127.138 248.073,127.138C247.87,127.138 247.649,127.274 247.412,127.545C246.295,128.933 244.839,130.085 243.044,130.999C241.249,131.914 239.047,132.371 236.44,132.371Z" style="fill:rgb(134,192,209);fill-rule:nonzero;"/>
        </g>
    </g>
    <g transform="matrix(0.0275,0,0,0.0275,651.5,0)">
        <g id="Layer-11" serif:id="Layer 1" transform="matrix(1.333333,0,0,1.333333,0,0)">
            <circle id="path1" cx="1500" cy="1500" r="1500" style="fill:rgb(123,186,168);"/>
        </g>
        <g id="Layer-2" serif:id="Layer 2" transform="matrix(1.333333,0,0,1.333333,0,0)">
            <circle id="path2" cx="1498.268" cy="1500" r="1400" style="fill:rgb(46,52,64);"/>
        </g>
        <g id="Layer-3" serif:id="Layer 3" transform="matrix(1.333333,0,0,1.333333,0,0)">
            <path id="path3" d="M179.079,1192.101L314.613,1192.101L179.079,1192.101Z" style="fill:rgb(193,96,105);fill-rule:nonzero;stroke:rgb(193,96,105);stroke-width:75.52px;"/>
            <path id="path4" d="M132.455,1292.443L481.656,1292.443L132.455,1292.443Z" style="fill:rgb(193,96,105);fill-rule:nonzero;stroke:rgb(193,96,105);stroke-width:75.52px;"/>
            <path id="path5" d="M140.483,1436.94L473.628,1436.94L140.483,1436.94Z" style="fill:rgb(193,96,105);fill-rule:nonzero;stroke:rgb(193,96,105);stroke-width:75.52px;"/>
            <path id="path6" d="M545.877,1292.443L614.111,1292.443L545.877,1292.443Z" style="fill:rgb(193,96,105);fill-rule:nonzero;stroke:rgb(193,96,105);stroke-width:75.52px;"/>
            <path id="path7" d="M748.79,1438.73L565.946,1440.954L748.79,1438.73Z" style="fill:rgb(193,96,105);fill-rule:nonzero;stroke:rgb(193,96,105);stroke-width:75.52px;"/>
            <path id="path8" d="M317.09,1545.312L409.407,1545.312L317.09,1545.312Z" style="fill:rgb(193,96,105);fill-rule:nonzero;stroke:rgb(193,96,105);stroke-width:75.52px;"/>
            <path id="path9" d="M425.463,1661.713L702.415,1657.699L425.463,1661.713Z" style="fill:rgb(193,96,105);fill-rule:nonzero;stroke:rgb(193,96,105);stroke-width:75.52px;"/>
            <path id="path10" d="M280.966,1806.209L345.187,1806.209L280.966,1806.209Z" style="fill:rgb(193,96,105);fill-rule:nonzero;stroke:rgb(193,96,105);stroke-width:75.52px;"/>
            <path id="path11" d="M409.407,1810.223L730.511,1810.223L409.407,1810.223Z" style="fill:rgb(193,96,105);fill-rule:nonzero;stroke:rgb(193,96,105);stroke-width:75.52px;"/>
            <path id="path12" d="M814.801,1810.223L899.091,1806.209L814.801,1810.223Z" style="fill:rgb(193,96,105);fill-rule:nonzero;stroke:rgb(193,96,105);stroke-width:75.52px;"/>
            <path id="path13" d="M434.706,1193.366L2740.126,1191.711C2785.734,1191.678 2823.612,1228.461 2824.917,1274.05L2829.223,1424.51C2830.087,1454.689 2818.695,1483.968 2797.662,1505.628C2776.63,1527.288 2747.698,1539.534 2717.507,1539.557L699.36,1541.095C636.145,1541.144 583.983,1489.394 583.531,1426.18L582.215,1242.544C582.12,1229.306 587.35,1216.57 596.721,1207.218C606.091,1197.867 618.838,1192.664 632.076,1192.786L644.756,1192.903C644.882,1192.905 644.984,1193.009 644.983,1193.135C644.982,1193.261 644.88,1193.364 644.754,1193.366L434.706,1193.366Z" style="fill:none;fill-rule:nonzero;stroke:rgb(193,96,105);stroke-width:75.52px;"/>
            <path id="path14" d="M291.727,1303.708L291.727,1435.562L291.727,1303.708Z" style="fill:none;fill-rule:nonzero;stroke:rgb(193,96,105);stroke-width:52.84px;"/>
            <path id="path15" d="M637.844,1674.548L636.196,1811.346L637.844,1674.548Z" style="fill:none;fill-rule:nonzero;stroke:rgb(193,96,105);stroke-width:52.84px;"/>
        </g>
        <g id="Layer-4" serif:id="Layer 4" transform="matrix(1.333333,0,0,1.333333,0,0)">
            <g id="text2" transform="matrix(0.87841,0,0,0.704671,11.98209,455.91748)">
                <g transform="matrix(1,0,0,1,164.56641,1801.1564)">
                    <text x="0px" y="0px" style="font-family:'Helvetica';font-size:267.231px;fill:rgb(236,239,244);">The Mgaming Group</text>
                </g>
            </g>
        </g>
        <g id="Layer-5" serif:id="Layer 5" transform="matrix(1.333333,0,0,1.333333,0,0)">
            <g id="text3" transform="matrix(1.494736,0,0,1.296006,287.87186,153.0391)">
                <g transform="matrix(1,0,0,1,275.98047,1013.1015)">
                    <text x="0px" y="0px" style="font-family:'CaskaydiaCoveNFP-Regular', 'CaskaydiaCove Nerd Font Propo';font-size:192px;fill:rgb(255,252,255);stroke:rgb(255,254,255);stroke-width:4.16px;">comboom.sucht</text>
                </g>
            </g>
        </g>
    </g>
</svg>
